<?xml version="1.0" encoding="UTF-8"?>
<!-- Generator: Adobe Illustrator 16.0.0, SVG Export Plug-In . SVG Version: 6.00 Build 0)  -->
<!DOCTYPE svg PUBLIC "-//W3C//DTD SVG 1.1//EN" "http://www.w3.org/Graphics/SVG/1.1/DTD/svg11.dtd">
<svg version="1.1" id="Ebene_1" xmlns="http://www.w3.org/2000/svg" xmlns:xlink="http://www.w3.org/1999/xlink" x="0px" y="0px" width="200px" height="100px" viewBox="0 0 200 100" enable-background="new 0 0 200 100" xml:space="preserve">
<g id="Ebene_2">
	<path display="none" fill="#c4c4c4" d="M13.424-24.085c16.899-0.211,16.899-0.211,16.899-0.211l20.385,62.528l0.317-0.212   l0.528-12.146l19.751-0.106c0,0,4.753-2.428,3.908-6.654c-0.845-4.225-5.281-7.499-7.288-9.929   c-2.007-2.428-7.076-8.872-11.513-17.217c-4.435-8.344-2.007-3.802-2.007-3.802l-0.316-12.041H72.15v12.464   c0,0,5.598,6.548,9.505,10.35c3.909,3.802,5.704,5.916,7.816,9.506c2.114,3.591,2.219,4.542,2.43,6.232   c0.211,1.69,0.211,2.112,0.211,2.112h0.633V2.637h16.37v20.386c0,0-0.528,2.005,2.325,2.429c2.851,0.422,14.998,0,14.998,0v13.731   l0.95,0.528l4.437-14.682c0,0,8.344-0.106,9.4-0.633c1.056-0.528,4.647-2.428,6.231-6.443c1.585-4.014,1.478-8.028,0-10.985   c-1.479-2.958-6.021-5.282-6.021-5.282h12.991l-5.914,23.872v0.527l17.005,0.211l-18.273-50.064h17.64l20.174,63.056l0.289,0.524   h-79.506c0,0-10.562-2.637-11.724-8.446c-1.161-5.808-0.634-4.963-0.634-4.963h-1.161c0,0-1.479,8.45-10.668,11.406   c-9.189,2.958-6.232,2.218-6.232,2.218H-6.75l4.541-15.42c0,0,8.556,0.843,11.302-1.48c2.746-2.323,4.436-4.436,4.753-8.238   c0.316-3.802-0.212-7.815-2.534-10.034C8.986,2.637,6.664,1.686,6.664,1.686h13.519l-6.23,24.083h17.638L12.46-24.085H13.424z"/>
	<g>
		<path fill="#c4c4c4" d="M57.465,58.131l-3.809-12.037l-6.572-20.649l0.034-0.012l-4.835-15.277l0.005-1.584L25.506,8.518    l15.7,49.613H24.164l6.814-23.605H17.917c4.124,2.033,6.967,6.266,6.967,11.173c0,6.884-5.58,12.465-12.464,12.465    c-1.296,0-2.545-0.2-3.721-0.566l-4.31,14.601h8.333v-0.023H61.46V70.62l-3.974-12.489H57.465z"/>
		<circle fill="#c4c4c4" cx="12.525" cy="45.686" r="8.873"/>
		<path fill="#c4c4c4" d="M192,58.131h-0.023l-3.859-12.037l-6.656-20.649l0.033-0.012l-4.897-15.277l0.007-1.584l-17.001-0.054    l15.904,49.613h-17.264l6.904-23.605h-13.229c4.174,2.033,7.056,6.266,7.056,11.173c0,6.884-5.652,12.465-12.626,12.465    c-1.314,0-2.579-0.2-3.768-0.566l-4.365,14.601h8.439v-0.023h49.37V70.62L192,58.131z"/>
		<circle fill="#c4c4c4" cx="147.087" cy="45.686" r="8.873"/>
		<rect x="100.086" y="8.506" fill="#c4c4c4" width="40.98" height="17.323"/>
		<path fill="#c4c4c4" d="M124.786,57.664c-0.234,0.042-0.474,0.069-0.718,0.069c-2.179,0-3.943-1.803-3.943-4.027    c0-0.374,0.053-0.732,0.146-1.075c-0.051-0.027-0.096-0.059-0.146-0.089V34.707h-16.396v26.666    c-0.002,0.087-0.014,0.174-0.014,0.26c0,5.801,4.9,10.505,10.946,10.505c0.442,0,0.88-0.033,1.309-0.085v0.043h22.19V57.731    h-13.344C124.81,57.71,124.797,57.688,124.786,57.664z"/>
		<path fill="#c4c4c4" d="M97.617,36.645c-3.496-4.36-15.012-15.408-15.012-15.408V8.549H64.29v12.688h0.074    c0.056,1.59,0.787,2.483,0.787,2.483s4.496,7.058,7.075,10.229c3.83,4.6,9.408,11.022,9.408,11.022s4.412,4.757,4.661,6.978    c0.25,2.223-0.803,3.727-1.332,4.125c-1.557,1.864-2.534,2.313-3.068,2.379h-0.285c-0.152-0.026-0.227-0.079-0.227-0.079    l0.028,0.079H61.513V72.09h24.519c-0.627,0.105,0.013,0,0.013,0h0.576v-0.099c0.909-0.15,2.693-0.449,6.084-1.014    c9.075-1.506,11.239-11.257,11.404-11.972c0.167-0.714-0.081-9.911-0.499-11.974C103.194,44.972,101.113,41.007,97.617,36.645z"/>
	</g>
	<g>
		<path fill="#c4c4c4" d="M18.217,91.464h-2.875l-2.448-8.987L10.4,91.464H7.524L4.452,80.466h2.509l2.129,8.978l2.434-8.978h2.891    l2.372,8.978l2.084-8.978h2.343L18.217,91.464z"/>
		<path fill="#c4c4c4" d="M23.281,88.058c-0.016,1.156,0.471,2.251,1.763,2.251c0.898,0,1.415-0.439,1.537-1.336h2.159    c-0.273,1.993-1.932,2.66-3.728,2.66c-2.478,0-3.894-1.399-3.894-3.88c0-2.553,1.34-4.166,3.97-4.166    c1.492,0,2.8,0.609,3.393,2.039c0.32,0.744,0.335,1.52,0.335,2.434h-5.536V88.058z M25.075,84.896c-1.094,0-1.75,0.79-1.75,1.886    h3.347C26.672,85.626,26.14,84.896,25.075,84.896z"/>
		<path fill="#c4c4c4" d="M33.349,91.662c-1.81,0-3.437-0.546-3.437-2.646h2.235c0.03,0.883,0.395,1.37,1.308,1.37    c0.608,0,1.262-0.351,1.262-1.02c0-0.426-0.303-0.669-0.73-0.851c-0.212-0.094-0.456-0.169-0.729-0.229    c-0.275-0.075-0.548-0.121-0.837-0.196c-1.141-0.289-2.298-0.73-2.298-2.161c0-1.827,1.825-2.328,3.286-2.328    c1.689,0,3.21,0.596,3.316,2.48h-2.175c-0.031-0.73-0.427-1.233-1.171-1.233c-0.533,0-1.155,0.246-1.155,0.854    c0,0.409,0.273,0.639,0.714,0.806c0.229,0.091,0.486,0.168,0.76,0.228c0.273,0.062,0.578,0.12,0.867,0.197    c1.186,0.291,2.388,0.748,2.388,2.207C36.954,91.132,34.992,91.662,33.349,91.662z"/>
		<path fill="#c4c4c4" d="M41.289,85.244v3.499c0,0.896,0.046,1.324,1.08,1.324c0.245,0,0.457-0.048,0.715-0.062v1.442    c-0.533,0.077-1.05,0.125-1.582,0.125c-1.536,0-2.372-0.382-2.372-2.055v-4.274h-1.477v-1.459h1.477v-1.28l2.159-0.883v2.163h1.81    v1.459H41.289L41.289,85.244z"/>
		<path fill="#c4c4c4" d="M48.421,81.915c-1.049,0-1.141,0.484-1.141,1.247v0.623h1.765v1.461H47.28v6.218h-2.219v-6.218h-1.492    v-1.461h1.492v-0.64c0-1.749,0.744-2.737,2.63-2.737c0.472,0,0.974,0.03,1.461,0.073v1.461    C48.893,81.931,48.65,81.915,48.421,81.915z"/>
		<path fill="#c4c4c4" d="M55.022,91.464c-0.122-0.348-0.167-0.683-0.183-1.047c-0.624,0.911-1.369,1.199-2.449,1.199    c-1.489,0-2.677-0.729-2.677-2.341c0-2.389,2.722-2.601,4.502-2.601h0.624v-0.287c0-0.81-0.167-1.6-1.156-1.6    c-0.852,0-1.186,0.487-1.186,1.202h-2.267c0.03-1.889,1.81-2.419,3.422-2.419c2.069,0,3.346,0.473,3.346,2.98v2.284    c0,0.867,0,1.733,0.121,2.628H55.022z M50.855,82.204v-1.781h2.008v1.781H50.855z M54.84,87.753c-0.213,0-0.365-0.014-0.578-0.014    c-0.943,0-2.357,0.214-2.357,1.413c0,0.701,0.578,1.143,1.246,1.143c1.431,0,1.689-1.249,1.689-2.403    C54.84,87.876,54.84,87.77,54.84,87.753z M54.444,82.204v-1.781h2.023v1.781H54.444z"/>
		<path fill="#c4c4c4" d="M59.007,91.464V80.466h2.22v10.998H59.007z"/>
		<path fill="#c4c4c4" d="M63.281,82.231v-1.766h2.312v1.766H63.281z M63.327,91.464v-7.679h2.221v7.679H63.327z"/>
		<path fill="#c4c4c4" d="M70.596,91.662c-1.81,0-3.437-0.546-3.437-2.646h2.237c0.03,0.883,0.396,1.37,1.307,1.37    c0.61,0,1.264-0.351,1.264-1.02c0-0.426-0.305-0.669-0.73-0.851c-0.213-0.094-0.458-0.169-0.73-0.229    c-0.274-0.075-0.548-0.121-0.837-0.196c-1.141-0.289-2.297-0.73-2.297-2.161c0-1.827,1.825-2.328,3.286-2.328    c1.688,0,3.208,0.596,3.315,2.48h-2.175c-0.032-0.73-0.427-1.233-1.172-1.233c-0.532,0-1.156,0.246-1.156,0.854    c0,0.409,0.273,0.639,0.714,0.806c0.229,0.091,0.487,0.168,0.761,0.228c0.274,0.062,0.578,0.12,0.867,0.197    c1.187,0.291,2.388,0.748,2.388,2.207C74.202,91.132,72.24,91.662,70.596,91.662z"/>
		<path fill="#c4c4c4" d="M79.28,91.648c-2.508,0-3.985-1.445-3.985-3.954c0-2.51,1.505-4.123,4.061-4.123    c1.902,0,3.378,0.819,3.561,2.86H80.71c-0.03-0.883-0.441-1.536-1.368-1.536c-1.475,0-1.734,1.504-1.734,2.691    c0,1.142,0.243,2.722,1.689,2.722c1.034,0,1.384-0.715,1.415-1.673h2.266v0.077C82.978,90.781,81.091,91.648,79.28,91.648z"/>
		<path fill="#c4c4c4" d="M89.639,91.464v-4.089c0-1.066-0.076-2.206-1.46-2.206c-1.383,0-1.611,1.537-1.611,2.327v3.968h-2.221    V80.47h2.221v4.441c0.653-0.837,1.413-1.251,2.463-1.251c1.871,0,2.814,1.008,2.814,2.849v4.955H89.639z"/>
		<path fill="#c4c4c4" d="M95.585,88.058c-0.015,1.156,0.471,2.251,1.764,2.251c0.896,0,1.415-0.439,1.536-1.336h2.16    c-0.274,1.993-1.933,2.66-3.727,2.66c-2.479,0-3.895-1.399-3.895-3.88c0-2.553,1.339-4.166,3.97-4.166    c1.492,0,2.8,0.609,3.393,2.039c0.319,0.744,0.335,1.52,0.335,2.434h-5.537V88.058z M97.379,84.896    c-1.095,0-1.749,0.79-1.749,1.886h3.347C98.978,85.626,98.445,84.896,97.379,84.896z"/>
		<path fill="#c4c4c4" d="M114.841,91.464v-4.698h-4.762v4.698h-2.388V80.466h2.388v4.505h4.762v-4.505h2.389v10.998H114.841z"/>
		<path fill="#c4c4c4" d="M123.177,91.648c-2.558,0-4.154-1.461-4.154-4.048c0-2.553,1.72-4.014,4.213-4.014    c2.526,0,4.124,1.461,4.124,4.014C127.359,90.156,125.701,91.648,123.177,91.648z M123.177,84.925    c-1.492,0-1.843,1.461-1.843,2.692c0,1.217,0.352,2.707,1.843,2.707c1.474,0,1.87-1.49,1.87-2.707    C125.048,86.386,124.65,84.925,123.177,84.925z"/>
		<path fill="#c4c4c4" d="M132.407,91.648c-2.51,0-3.984-1.445-3.984-3.954c0-2.51,1.506-4.123,4.061-4.123    c1.902,0,3.378,0.819,3.559,2.86h-2.204c-0.03-0.883-0.44-1.536-1.37-1.536c-1.476,0-1.733,1.504-1.733,2.691    c0,1.142,0.244,2.722,1.687,2.722c1.036,0,1.387-0.715,1.417-1.673h2.266v0.077C136.104,90.781,134.218,91.648,132.407,91.648z"/>
		<path fill="#c4c4c4" d="M142.766,91.464v-4.089c0-1.066-0.077-2.206-1.461-2.206c-1.386,0-1.613,1.537-1.613,2.327v3.968h-2.222    V80.47h2.222v4.441c0.653-0.837,1.414-1.251,2.465-1.251c1.871,0,2.812,1.008,2.812,2.849v4.955H142.766z"/>
		<path fill="#c4c4c4" d="M150.019,91.662c-1.809,0-3.437-0.546-3.437-2.646h2.236c0.032,0.883,0.396,1.37,1.309,1.37    c0.606,0,1.262-0.351,1.262-1.02c0-0.426-0.304-0.669-0.73-0.851c-0.214-0.094-0.456-0.169-0.729-0.229    c-0.274-0.075-0.547-0.121-0.836-0.196c-1.141-0.289-2.297-0.73-2.297-2.161c0-1.827,1.825-2.328,3.285-2.328    c1.69,0,3.209,0.596,3.315,2.48h-2.175c-0.031-0.73-0.426-1.233-1.172-1.233c-0.531,0-1.156,0.246-1.156,0.854    c0,0.409,0.274,0.639,0.715,0.806c0.229,0.091,0.487,0.168,0.761,0.228c0.274,0.062,0.578,0.12,0.867,0.197    c1.188,0.291,2.39,0.748,2.39,2.207C153.626,91.132,151.663,91.662,150.019,91.662z"/>
		<path fill="#c4c4c4" d="M158.704,91.648c-2.508,0-3.984-1.445-3.984-3.954c0-2.51,1.505-4.123,4.062-4.123    c1.901,0,3.375,0.819,3.558,2.86h-2.205c-0.029-0.883-0.441-1.536-1.368-1.536c-1.476,0-1.733,1.504-1.733,2.691    c0,1.142,0.242,2.722,1.688,2.722c1.034,0,1.386-0.715,1.414-1.673h2.268v0.077C162.401,90.781,160.516,91.648,158.704,91.648z"/>
		<path fill="#c4c4c4" d="M169.062,91.464v-4.089c0-1.066-0.075-2.206-1.458-2.206c-1.386,0-1.613,1.537-1.613,2.327v3.968h-2.222    V80.47h2.222v4.441c0.652-0.837,1.414-1.251,2.465-1.251c1.87,0,2.812,1.008,2.812,2.849v4.955H169.062z"/>
		<path fill="#c4c4c4" d="M178.706,91.464l-0.031-1.169c-0.687,0.88-1.386,1.294-2.511,1.294c-1.887,0-2.8-0.991-2.8-2.832v-4.956    h2.222v4.075c0,1.064,0.046,2.236,1.43,2.236c1.386,0,1.644-1.232,1.644-2.343v-3.969h2.222v4.835c0,0.944,0,1.872,0.044,2.828    H178.706z"/>
		<path fill="#c4c4c4" d="M182.948,91.464V80.466h2.221v10.998H182.948z"/>
		<path fill="#c4c4c4" d="M188.91,88.058c-0.015,1.156,0.473,2.251,1.763,2.251c0.897,0,1.416-0.439,1.538-1.336h2.159    c-0.273,1.993-1.933,2.66-3.726,2.66c-2.48,0-3.895-1.399-3.895-3.88c0-2.553,1.337-4.166,3.97-4.166    c1.491,0,2.799,0.609,3.393,2.039c0.32,0.744,0.333,1.52,0.333,2.434h-5.535V88.058z M190.704,84.896    c-1.095,0-1.75,0.79-1.75,1.886h3.347C192.301,85.626,191.77,84.896,190.704,84.896z"/>
	</g>
</g>
</svg>
